<svg xmlns="http://www.w3.org/2000/svg" viewBox="0 0 48 48"><g fill="none"><path fill="#C083FC" d="M7.205 20.667h33.59c2.629 0 4.541 2.49 3.864 5.029l-2.936 11.01a5.33 5.33 0 0 1-5.152 3.96H11.432a5.33 5.33 0 0 1-5.152-3.96l-2.936-11.01c-.677-2.539 1.237-5.03 3.864-5.03z" opacity=".2"/><path stroke="#6A21A7" stroke-linecap="round" stroke-linejoin="round" stroke-width="4" d="M6 20.667v-8a5.33 5.33 0 0 1 5.333-5.334h5.203c1.619 0 3.147.734 4.16 1.995l1.608 2.005h14.363A5.33 5.33 0 0 1 42 16.667v4m-34.795 0h33.59c2.629 0 4.541 2.49 3.864 5.029l-2.936 11.01a5.33 5.33 0 0 1-5.152 3.96H11.432a5.33 5.33 0 0 1-5.152-3.96l-2.936-11.01c-.677-2.539 1.237-5.03 3.864-5.03z"/></g></svg>
