<svg xmlns="http://www.w3.org/2000/svg" viewBox="0 0 48 48"><g fill="none"><path d="M0 0h48v48H0z"/><path fill="#F87171" d="m18.311 21.439 9.31 9.311 4.817-4.811a1.5 1.5 0 0 1 2.12 0L42 33.386V10.5A1.5 1.5 0 0 0 40.5 9h-33A1.5 1.5 0 0 0 6 10.5v21.13l10.189-10.191a1.5 1.5 0 0 1 2.122 0" opacity=".2"/><rect width="36" height="30" x="6" y="9" stroke="#991B1B" stroke-linecap="round" stroke-linejoin="round" stroke-width="4" rx="1.5"/><circle cx="29.25" cy="18.75" r="2.25" fill="#991B1B"/><path stroke="#991B1B" stroke-linecap="round" stroke-linejoin="round" stroke-width="4" d="m27.62 30.75 4.817-4.811a1.5 1.5 0 0 1 2.121 0L42 33.386"/><path stroke="#991B1B" stroke-linecap="round" stroke-linejoin="round" stroke-width="4" d="m6 31.63 10.189-10.191a1.5 1.5 0 0 1 2.122 0L35.871 39"/></g></svg>
