<svg xmlns="http://www.w3.org/2000/svg" viewBox="0 0 48 48"><g fill="none"><path fill="#2DD4BF" d="M24 4.667C13.323 4.667 4.667 13.323 4.667 24c0 3.517.954 6.805 2.594 9.645 1.147 2.15-.141 7.232-2.594 9.688 3.333.182 7.725-1.325 9.688-2.594A19.178 19.178 0 0 0 24 43.334c10.677 0 19.333-8.657 19.333-19.334S34.677 4.667 24 4.667" opacity=".2"/><path stroke="#0F5E59" stroke-linecap="round" stroke-linejoin="round" stroke-width="4" d="M24 4.667C13.323 4.667 4.667 13.323 4.667 24c0 3.517.954 6.805 2.594 9.645 1.147 2.15-.141 7.232-2.594 9.688 3.333.182 7.725-1.325 9.688-2.594A19.178 19.178 0 0 0 24 43.334c10.677 0 19.333-8.657 19.333-19.334S34.677 4.667 24 4.667"/><path stroke="#0F5E59" stroke-linecap="round" stroke-linejoin="round" stroke-width="4" d="M15.979 32A11.3 11.3 0 0 0 24 35.333c3.13 0 5.95-1.266 8-3.312"/></g></svg>
