<svg xmlns="http://www.w3.org/2000/svg" viewBox="0 0 48 48"><g fill="none"><path fill="#9DA2AF" d="M39.333 22c.992 0 1.91.315 2.667.845v-6.178a5.334 5.334 0 0 0-5.333-5.334h-6.179a4.64 4.64 0 0 0 .845-2.666 4.667 4.667 0 1 0-9.333 0c0 .994.315 1.909.845 2.666h-6.178a5.334 5.334 0 0 0-5.334 5.334v6.178A4.65 4.65 0 0 0 8.667 22a4.667 4.667 0 1 0 0 9.333 4.63 4.63 0 0 0 2.666-.845v6.179A5.334 5.334 0 0 0 16.667 42h6.178A4.64 4.64 0 0 1 22 39.333a4.667 4.667 0 1 1 9.333 0c0 .995-.314 1.91-.845 2.667h6.179A5.334 5.334 0 0 0 42 36.667v-6.179a4.65 4.65 0 0 1-2.667.845 4.667 4.667 0 1 1 0-9.333" opacity=".2"/><path stroke="#1F2837" stroke-linecap="round" stroke-linejoin="round" stroke-width="4" d="M39.333 22c.992 0 1.91.315 2.667.845v-6.178a5.334 5.334 0 0 0-5.333-5.334h-6.179a4.64 4.64 0 0 0 .845-2.666 4.667 4.667 0 1 0-9.333 0c0 .994.315 1.909.845 2.666h-6.178a5.334 5.334 0 0 0-5.334 5.334v6.178A4.65 4.65 0 0 0 8.667 22a4.667 4.667 0 1 0 0 9.333 4.63 4.63 0 0 0 2.666-.845v6.179A5.334 5.334 0 0 0 16.667 42h6.178A4.64 4.64 0 0 1 22 39.333a4.667 4.667 0 1 1 9.333 0c0 .995-.314 1.91-.845 2.667h6.179A5.334 5.334 0 0 0 42 36.667v-6.179a4.65 4.65 0 0 1-2.667.845 4.667 4.667 0 1 1 0-9.333"/></g></svg>
