<svg xmlns="http://www.w3.org/2000/svg" viewBox="0 0 48 48"><g fill="none"><path fill="#818BF8" d="M24.667 28.667h-9.334a2.667 2.667 0 0 0-2.666 2.666v9.334a2.667 2.667 0 0 0 2.666 2.666h9.334a2.667 2.667 0 0 0 2.666-2.666v-9.334a2.667 2.667 0 0 0-2.666-2.666M10.18 5.307l-7.01 12.021a1.334 1.334 0 0 0 1.152 2.005h14.021c1.03 0 1.67-1.117 1.152-2.005l-7.01-12.021a1.333 1.333 0 0 0-2.305 0" opacity=".2"/><path stroke="#3730A3" stroke-linecap="round" stroke-linejoin="round" stroke-width="4" d="M36 24.667a8.667 8.667 0 1 0 0-17.334 8.667 8.667 0 0 0 0 17.334m-11.333 4h-9.334a2.667 2.667 0 0 0-2.666 2.666v9.334a2.667 2.667 0 0 0 2.666 2.666h9.334a2.667 2.667 0 0 0 2.666-2.666v-9.334a2.667 2.667 0 0 0-2.666-2.666M10.18 5.307l-7.01 12.021a1.334 1.334 0 0 0 1.152 2.005h14.021c1.03 0 1.67-1.117 1.152-2.005l-7.01-12.021a1.333 1.333 0 0 0-2.305 0"/></g></svg>
